<?xml version="1.0" standalone="no"?>
<!DOCTYPE svg PUBLIC "-//W3C//DTD SVG 20010904//EN"
 "http://www.w3.org/TR/2001/REC-SVG-20010904/DTD/svg10.dtd">
<svg version="1.0" xmlns="http://www.w3.org/2000/svg"
 width="910.000000pt" height="769.000000pt" viewBox="0 0 910.000000 769.000000"
 preserveAspectRatio="xMidYMid meet">
<metadata>
Created by potrace 1.16, written by Peter Selinger 2001-2019
</metadata>
<g transform="translate(0.000000,769.000000) scale(0.100000,-0.100000)"
fill="#000000" stroke="none">
<path d="M255 7609 c-20 -236 47 -634 165 -989 140 -417 297 -714 692 -1301
l138 -206 0 -97 c0 -88 3 -102 31 -158 28 -56 75 -131 155 -246 24 -35 33 -41
54 -37 14 3 46 8 73 11 l47 7 0 57 c0 68 22 147 52 185 21 26 24 27 88 22 37
-3 84 -12 104 -21 20 -8 36 -12 36 -9 0 3 -74 123 -164 267 -402 643 -685
1107 -854 1401 -44 77 -199 378 -345 669 l-265 530 -7 -85z"/>
<path d="M8565 7146 c-329 -657 -485 -928 -1122 -1944 -128 -205 -233 -375
-233 -377 0 -2 16 3 36 11 52 22 160 30 179 14 36 -29 58 -94 63 -176 l4 -81
47 -7 c25 -3 57 -9 71 -12 22 -4 32 5 85 80 33 48 81 123 107 168 46 81 47 85
54 193 l7 110 162 245 c369 558 519 842 651 1234 130 385 201 832 166 1041 -7
39 -14 27 -277 -499z"/>
<path d="M70 6939 c-17 -100 -7 -326 19 -450 45 -208 120 -416 236 -654 112
-231 251 -427 519 -734 l126 -143 0 -87 0 -88 79 -95 c44 -52 115 -128 158
-168 85 -80 253 -213 260 -206 2 2 -3 21 -12 42 -9 22 -19 73 -22 114 -6 72
-8 77 -53 130 -57 65 -103 138 -156 240 -37 74 -38 77 -35 173 3 94 2 98 -27
135 -51 65 -335 500 -439 673 -55 92 -128 220 -162 285 -34 66 -103 178 -152
249 -101 146 -230 396 -280 545 -18 52 -35 99 -39 103 -5 5 -13 -24 -20 -64z"/>
<path d="M9005 6998 c-2 -7 -11 -38 -21 -68 -58 -187 -206 -469 -344 -655 -21
-28 -65 -103 -97 -166 -107 -207 -438 -736 -587 -939 l-48 -65 7 -93 6 -93
-62 -113 c-34 -62 -90 -148 -125 -192 -61 -75 -64 -82 -64 -134 0 -30 -9 -80
-20 -110 -10 -30 -17 -56 -15 -58 1 -2 40 25 86 60 96 71 305 276 366 358 40
53 41 58 46 148 l4 94 50 51 c140 145 341 398 460 578 166 251 327 657 378
954 18 105 21 328 5 403 -12 53 -17 62 -25 40z"/>
<path d="M1 5985 c-1 -23 40 -176 69 -260 56 -156 150 -327 267 -482 77 -103
228 -267 301 -328 57 -48 60 -52 66 -110 4 -32 13 -73 20 -90 35 -83 597 -534
651 -522 76 18 125 32 125 37 -1 3 -39 29 -85 58 -116 73 -286 222 -399 349
l-94 106 -7 103 -7 103 -52 58 c-136 153 -356 423 -436 536 -18 26 -57 65 -84
86 -89 67 -198 185 -313 337 -12 16 -22 25 -22 19z"/>
<path d="M9028 5902 c-77 -101 -181 -210 -260 -273 -31 -25 -94 -96 -146 -164
-78 -104 -158 -202 -381 -466 l-48 -56 -6 -97 c-5 -94 -7 -99 -43 -144 -119
-147 -387 -384 -507 -447 -40 -21 -48 -35 -19 -35 10 0 40 -7 66 -16 59 -20
58 -21 206 86 157 113 295 227 402 329 l89 86 12 75 12 75 135 135 c242 241
406 489 498 750 30 86 68 238 60 245 -2 2 -34 -35 -70 -83z"/>
<path d="M200 5014 c0 -16 76 -141 126 -206 26 -35 103 -118 170 -186 92 -93
123 -131 128 -156 5 -26 26 -51 99 -114 179 -156 333 -262 516 -353 125 -62
159 -74 179 -61 10 7 4 23 -23 68 -20 32 -41 77 -47 99 -9 36 -21 47 -110 105
-107 69 -272 198 -366 285 -31 29 -84 67 -117 85 -144 81 -313 209 -462 354
-51 49 -93 85 -93 80z"/>
<path d="M8790 4917 c-119 -116 -279 -240 -408 -315 -48 -29 -132 -91 -187
-138 -116 -101 -319 -254 -386 -292 -40 -22 -48 -32 -58 -72 -7 -26 -28 -71
-47 -100 -19 -29 -33 -54 -32 -55 30 -25 159 26 338 135 220 133 453 325 470
389 7 26 43 70 138 166 70 72 152 164 181 205 51 73 106 169 99 175 -2 2 -50
-43 -108 -98z"/>
<path d="M1693 4764 c-9 -21 -19 -69 -21 -107 -6 -90 24 -151 123 -251 95 -96
112 -107 156 -100 l34 6 0 56 0 57 62 3 c35 2 79 -1 98 -7 19 -5 35 -7 35 -5
0 14 -205 287 -233 310 -45 38 -110 64 -178 71 l-59 6 -17 -39z"/>
<path d="M7263 4782 c-88 -28 -131 -68 -239 -219 l-101 -140 96 1 96 1 0 -57
0 -56 38 -6 c36 -6 43 -3 100 46 68 60 129 132 159 192 27 54 27 147 0 210
-20 43 -23 46 -59 45 -21 0 -61 -8 -90 -17z"/>
<path d="M2265 4704 c-18 -146 -4 -394 29 -539 12 -47 12 -77 4 -147 l-11 -87
48 -83 c56 -98 204 -312 340 -493 135 -179 267 -335 412 -485 67 -71 125 -139
128 -153 9 -33 -6 -60 -69 -127 -28 -31 -116 -129 -195 -219 -131 -149 -145
-162 -170 -157 -79 19 -108 19 -130 -3 -43 -43 -20 -115 66 -208 27 -28 102
-110 168 -183 176 -192 288 -260 428 -260 178 0 325 96 403 265 57 123 65 255
27 430 -34 157 -106 258 -457 640 -341 373 -609 746 -732 1022 l-35 78 4 -72
c2 -40 3 -73 1 -73 -2 0 -19 28 -39 61 -87 149 -128 304 -185 694 -12 83 -23
151 -25 153 -1 2 -6 -23 -10 -54z m1180 -2276 c46 -36 75 -112 75 -195 0 -92
-26 -165 -88 -242 -87 -108 -143 -141 -240 -141 -47 0 -67 6 -104 29 -48 30
-78 73 -78 111 0 11 30 55 67 98 135 155 324 362 332 362 5 0 21 -10 36 -22z"/>
<path d="M6801 4598 c-31 -222 -66 -395 -103 -505 -32 -98 -133 -283 -124
-228 23 144 17 155 -29 45 -113 -272 -458 -739 -776 -1050 -147 -143 -159
-158 -159 -191 0 -52 25 -71 91 -68 l53 3 68 -75 c61 -66 66 -74 46 -77 -12
-2 -127 4 -255 13 l-234 17 -36 -28 c-20 -15 -67 -57 -105 -92 -82 -78 -100
-119 -73 -175 17 -37 76 -74 96 -61 6 3 36 -20 67 -52 118 -125 377 -427 386
-449 7 -17 6 -32 -3 -49 -18 -32 -7 -72 24 -92 38 -25 69 -7 180 106 104 106
108 118 64 164 -17 18 -21 18 -59 6 -29 -10 -47 -11 -58 -4 -20 13 -308 331
-323 358 -11 19 -6 19 202 12 118 -3 257 -9 309 -13 l95 -6 43 -46 c88 -92
129 -102 191 -46 46 42 57 76 37 116 -8 16 -128 155 -268 309 -139 155 -255
286 -256 291 -2 5 54 69 125 142 197 203 353 395 585 723 97 137 196 297 204
331 3 12 2 60 -4 105 -5 46 -6 92 -2 103 26 70 43 231 43 395 -1 253 -13 273
-42 68z"/>
<path d="M296 4676 c29 -97 126 -237 234 -340 41 -38 76 -81 83 -101 31 -87
363 -295 601 -375 106 -35 106 -35 99 -11 -3 13 2 23 16 30 32 18 26 26 -36
50 -222 85 -562 331 -846 612 -87 86 -155 147 -151 135z"/>
<path d="M8649 4539 c-173 -173 -347 -317 -532 -440 -115 -76 -326 -189 -354
-189 -20 0 -16 -14 8 -28 14 -9 19 -20 16 -33 -5 -18 -2 -20 26 -14 204 44
646 305 678 402 7 22 39 62 86 106 40 39 94 97 119 130 44 60 119 201 112 215
-2 4 -73 -63 -159 -149z"/>
<path d="M1557 4530 c-69 -12 -79 -23 -71 -79 18 -131 110 -238 275 -320 56
-29 104 -49 107 -47 2 3 -6 19 -18 36 -19 27 -50 108 -50 131 0 5 11 14 25 21
l25 13 -76 75 c-41 41 -91 99 -110 127 -19 29 -40 52 -47 52 -7 -1 -34 -5 -60
-9z"/>
<path d="M7435 4482 c-21 -31 -71 -89 -111 -128 l-73 -71 25 -12 c23 -10 25
-15 19 -48 -7 -41 -39 -108 -55 -118 -5 -3 -10 -10 -10 -15 0 -14 95 25 162
66 137 83 219 196 222 305 1 58 0 59 -95 72 l-47 6 -37 -57z"/>
<path d="M2030 4350 c0 -42 21 -80 69 -123 36 -33 139 -93 146 -85 1 2 -5 48
-15 103 l-16 99 -40 18 c-21 10 -63 18 -91 18 -52 0 -53 0 -53 -30z"/>
<path d="M6923 4360 c-38 -17 -43 -23 -43 -52 -1 -18 -7 -63 -14 -100 -7 -38
-11 -68 -9 -68 18 0 126 66 156 95 42 41 57 71 57 116 0 28 -1 29 -52 29 -31
0 -71 -9 -95 -20z"/>
<path d="M331 4218 c129 -255 384 -397 901 -503 96 -19 185 -35 198 -35 25 1
25 1 -5 23 -16 12 -41 33 -55 47 -15 15 -56 34 -105 48 -44 13 -118 39 -165
59 -49 20 -114 39 -153 44 -100 12 -171 35 -274 89 -99 52 -204 127 -298 214
-32 31 -61 56 -62 56 -2 0 6 -19 18 -42z"/>
<path d="M1935 4253 c-11 -2 -34 -9 -52 -14 -29 -9 -31 -12 -23 -39 11 -37 50
-94 83 -120 46 -37 280 -131 293 -118 2 3 7 31 10 64 l5 59 -68 30 c-47 20
-86 48 -126 87 -57 57 -71 63 -122 51z"/>
<path d="M7061 4219 c-38 -46 -117 -101 -175 -120 l-38 -14 7 -60 c3 -33 8
-62 10 -64 7 -6 184 58 245 89 59 30 100 75 126 136 18 43 14 48 -59 64 -72
15 -79 13 -116 -31z"/>
<path d="M8715 4194 c-95 -87 -223 -177 -313 -220 -80 -38 -205 -74 -258 -74
-17 0 -76 -18 -130 -39 -55 -22 -135 -50 -179 -63 -44 -12 -84 -28 -88 -35 -4
-7 -29 -29 -54 -48 -42 -32 -44 -35 -20 -35 46 0 364 69 484 106 323 98 508
225 604 416 16 32 28 58 27 58 -2 -1 -34 -30 -73 -66z"/>
<path d="M1485 4171 c-83 -20 -95 -26 -95 -49 1 -32 38 -101 79 -145 60 -65
201 -121 357 -142 l49 -6 -32 28 c-31 28 -83 99 -83 114 0 4 20 22 45 40 l44
32 -75 33 c-41 18 -104 51 -140 73 -36 23 -68 41 -72 40 -4 0 -39 -8 -77 -18z"/>
<path d="M7505 4174 c-37 -29 -106 -67 -180 -99 l-74 -32 45 -31 c24 -17 44
-38 44 -45 0 -18 -61 -98 -92 -120 -23 -17 -22 -18 26 -11 77 9 191 41 257 70
66 30 130 93 160 157 32 71 27 82 -38 100 -97 26 -126 28 -148 11z"/>
<path d="M1890 4017 c-45 -24 -80 -49 -80 -58 0 -19 71 -87 117 -111 42 -22
69 -27 207 -37 88 -6 161 -10 163 -8 1 2 -10 27 -25 55 -25 47 -31 52 -76 63
-55 13 -147 49 -218 85 -55 28 -55 28 -88 11z"/>
<path d="M7085 3989 c-44 -22 -113 -49 -153 -61 -68 -20 -74 -24 -103 -71 -16
-27 -29 -51 -27 -52 2 -2 75 1 163 7 142 9 165 13 208 36 47 25 117 92 117
112 0 14 -90 70 -109 69 -9 0 -52 -18 -96 -40z"/>
<path d="M401 3949 c50 -63 153 -144 243 -190 45 -23 85 -48 89 -55 12 -21 42
-34 151 -65 168 -48 517 -109 626 -109 l35 0 -37 23 c-36 22 -37 23 -23 50 7
15 12 27 10 27 -31 0 -263 38 -375 62 -267 56 -522 153 -679 256 -34 23 -65
42 -68 42 -2 0 10 -19 28 -41z"/>
<path d="M8670 3954 c-222 -143 -535 -246 -924 -304 -71 -11 -130 -21 -133
-23 -2 -2 1 -15 6 -28 8 -21 4 -27 -28 -46 l-36 -23 36 0 c61 0 317 37 442 64
199 43 299 75 332 106 17 15 55 40 85 55 73 37 134 79 193 134 42 39 95 102
85 101 -2 0 -28 -16 -58 -36z"/>
<path d="M1408 3883 c-27 -14 -48 -32 -48 -39 0 -23 65 -97 120 -136 l55 -39
173 -7 c152 -6 172 -5 172 9 0 8 14 37 31 63 16 27 29 49 27 50 -2 1 -46 8
-98 14 -123 15 -240 46 -313 83 -32 16 -61 29 -65 29 -4 0 -28 -12 -54 -27z"/>
<path d="M7569 3879 c-70 -36 -184 -66 -310 -81 l-97 -12 29 -51 c16 -29 29
-58 29 -66 0 -12 27 -13 171 -7 169 7 170 7 220 38 58 38 129 115 129 141 0
12 -17 27 -50 44 -27 14 -53 25 -57 24 -4 -1 -33 -14 -64 -30z"/>
<path d="M1973 3769 c-6 -8 -20 -33 -32 -56 l-21 -42 45 -27 c25 -14 71 -34
102 -44 l56 -17 136 34 c75 19 137 35 138 37 1 1 -14 25 -33 53 l-36 50 -81 7
c-251 19 -262 19 -274 5z"/>
<path d="M7010 3774 c-14 -2 -73 -6 -131 -9 l-106 -7 -36 -53 -35 -53 140 -35
140 -35 56 19 c65 22 134 59 139 74 2 6 -10 32 -27 58 -28 45 -32 47 -72 46
-24 -1 -54 -3 -68 -5z"/>
<path d="M696 3614 c70 -55 207 -122 322 -158 156 -49 290 -68 517 -72 l210
-5 -50 25 c-27 14 -61 38 -75 54 -25 29 -27 29 -155 35 -221 11 -476 58 -701
131 -61 20 -115 36 -119 36 -5 0 18 -21 51 -46z"/>
<path d="M8380 3638 c-211 -74 -521 -135 -740 -145 -131 -6 -135 -7 -157 -34
-13 -15 -47 -40 -76 -54 l-52 -26 210 5 c393 8 662 87 875 256 31 24 13 24
-60 -2z"/>
<path d="M1529 3609 c-14 -26 -13 -27 43 -55 51 -26 57 -27 168 -20 63 3 159
11 214 18 l98 11 -59 27 c-57 26 -69 28 -257 32 -180 4 -198 3 -207 -13z"/>
<path d="M7330 3620 c-161 -5 -179 -7 -229 -31 l-54 -26 104 -12 c57 -6 156
-15 220 -18 113 -6 117 -5 162 22 26 15 47 32 47 39 0 20 -23 36 -49 34 -15
-1 -105 -5 -201 -8z"/>
<path d="M2280 3581 l-135 -37 -14 -58 c-7 -31 -11 -59 -8 -62 3 -3 42 -12 88
-20 l82 -14 99 61 c54 34 98 66 98 71 0 13 -62 98 -69 97 -3 -1 -67 -18 -141
-38z"/>
<path d="M6640 3570 c-18 -28 -31 -52 -29 -54 2 -2 47 -31 100 -65 l96 -61 83
14 c45 8 85 17 88 21 3 3 -1 31 -9 62 l-14 56 -115 32 c-63 17 -127 35 -141
38 -24 6 -30 1 -59 -43z"/>
<path d="M2054 3529 c-73 -13 -312 -39 -361 -39 l-48 -1 34 -29 c19 -16 56
-37 83 -46 54 -18 101 -11 241 33 64 20 80 29 88 50 14 36 10 40 -37 32z"/>
<path d="M7000 3529 c0 -37 22 -57 87 -77 161 -50 198 -56 250 -38 49 17 113
55 113 69 0 4 -20 7 -45 7 -49 0 -293 27 -362 40 -24 4 -43 4 -43 -1z"/>
<path d="M2419 3428 l-94 -63 -3 -51 -3 -51 38 -7 c73 -12 86 -7 163 54 41 33
75 63 75 67 0 11 -69 113 -76 113 -3 0 -48 -28 -100 -62z"/>
<path d="M6546 3440 c-20 -27 -37 -54 -39 -59 -1 -5 33 -37 76 -71 l78 -63 60
6 c33 3 63 7 65 10 3 3 2 27 -2 55 -6 49 -7 50 -83 98 -42 26 -86 54 -97 61
-20 13 -24 10 -58 -37z"/>
<path d="M2058 3429 c-10 -5 -70 -23 -135 -40 -65 -17 -120 -33 -122 -35 -8
-7 84 -44 111 -44 31 0 198 68 198 81 0 5 -6 9 -14 9 -9 0 -12 7 -9 20 6 22
-3 25 -29 9z"/>
<path d="M7017 3421 c4 -15 1 -21 -11 -21 -37 0 -11 -20 70 -54 100 -42 129
-44 187 -15 49 26 55 22 -108 66 -60 17 -118 33 -127 37 -13 6 -15 3 -11 -13z"/>
<path d="M850 3373 c0 -8 108 -55 176 -76 135 -43 253 -59 429 -59 149 -1 217
6 355 33 l55 11 -48 24 c-26 14 -47 28 -47 32 0 4 -89 7 -198 8 -110 0 -237 7
-287 14 -72 11 -435 22 -435 13z"/>
<path d="M7885 3369 c-88 -16 -345 -31 -438 -25 -93 6 -100 5 -130 -18 -18
-13 -43 -27 -57 -31 -25 -8 -25 -8 -3 -16 59 -22 248 -42 393 -41 171 0 289
16 421 58 71 22 179 69 179 77 0 6 -330 3 -365 -4z"/>
<path d="M2045 3320 c-60 -27 -116 -50 -122 -50 -7 0 -13 -4 -13 -10 0 -6 33
-10 79 -10 71 0 85 3 138 33 127 72 139 87 71 86 -29 0 -80 -17 -153 -49z"/>
<path d="M6862 3358 c2 -6 41 -33 87 -59 82 -47 128 -59 209 -51 42 4 41 15
-5 31 -21 8 -77 31 -124 52 -87 39 -175 53 -167 27z"/>
<path d="M2543 3284 c-65 -51 -82 -70 -86 -96 -2 -18 -4 -34 -3 -35 0 0 17 -4
36 -7 32 -6 42 -1 105 50 39 31 74 60 79 64 5 5 -4 26 -21 49 l-29 40 -81 -65z"/>
<path d="M6446 3309 c-16 -22 -25 -44 -20 -48 5 -4 41 -34 81 -65 66 -53 74
-57 108 -50 31 6 36 10 31 28 -3 11 -6 26 -6 33 0 9 -152 144 -162 143 -2 0
-16 -19 -32 -41z"/>
<path d="M2191 3285 c-73 -46 -109 -81 -111 -107 0 -5 17 -8 37 -8 26 0 55 12
100 41 53 35 63 46 63 69 0 16 3 35 6 44 9 24 -4 19 -95 -39z"/>
<path d="M6820 3296 c0 -43 2 -45 63 -85 45 -29 74 -41 100 -41 72 0 41 46
-80 119 l-83 50 0 -43z"/>
<path d="M1805 3231 c-86 -35 -481 -45 -680 -18 -60 8 -112 14 -114 12 -10
-11 158 -68 269 -92 114 -24 374 -24 475 0 119 29 245 70 245 79 0 5 -8 7 -18
4 -10 -3 -44 1 -75 9 -65 17 -73 17 -102 6z"/>
<path d="M2623 3177 c-78 -58 -83 -64 -83 -99 l0 -38 46 0 c41 0 53 6 114 58
38 31 69 59 69 62 0 3 -14 21 -32 42 l-32 36 -82 -61z"/>
<path d="M6361 3200 l-31 -38 71 -61 c63 -55 75 -61 115 -61 l44 0 0 38 c0 36
-4 41 -84 99 l-84 62 -31 -39z"/>
<path d="M7185 3224 c-27 -7 -58 -11 -69 -8 -12 4 -16 2 -12 -5 8 -12 127 -50
246 -78 57 -14 115 -18 240 -17 178 0 281 18 420 72 70 27 102 47 60 38 -145
-31 -545 -38 -690 -11 -130 24 -141 24 -195 9z"/>
<path d="M2235 3185 c-46 -29 -74 -55 -83 -75 l-12 -30 46 0 c39 0 56 7 108
45 33 24 75 56 91 70 l30 25 -42 0 c-23 0 -47 2 -55 5 -7 2 -44 -15 -83 -40z"/>
<path d="M6737 3221 l-49 -6 89 -67 c81 -61 94 -68 136 -68 52 0 51 -1 36 34
-11 23 -140 118 -156 114 -5 0 -30 -4 -56 -7z"/>
<path d="M7053 3186 c4 -9 10 -22 13 -30 4 -11 -3 -16 -28 -18 l-33 -3 50 -26
c153 -80 309 -124 475 -134 l95 -5 -40 18 c-22 11 -61 35 -86 54 -37 29 -62
38 -139 52 -97 18 -248 67 -289 93 -22 14 -24 14 -18 -1z"/>
<path d="M1955 3154 c-44 -18 -129 -43 -190 -55 -89 -17 -119 -28 -156 -55
-26 -19 -64 -42 -85 -51 -35 -15 -37 -17 -15 -21 43 -7 221 19 310 44 47 14
129 46 181 71 91 44 94 47 63 52 -26 5 -31 9 -23 21 24 38 18 37 -85 -6z"/>
<path d="M2338 3119 c-56 -44 -78 -68 -83 -90 -4 -17 -5 -32 -3 -35 3 -2 25 0
50 4 45 9 184 102 171 116 -3 3 -19 6 -34 6 -26 0 -28 2 -22 30 3 17 4 30 2
29 -2 0 -39 -27 -81 -60z"/>
<path d="M6685 3151 c6 -29 5 -31 -24 -31 -17 0 -31 -4 -31 -9 0 -15 132 -111
154 -111 11 0 31 -3 44 -6 19 -6 22 -3 22 22 0 38 -2 39 -94 108 l-78 58 7
-31z"/>
<path d="M2725 3075 c-65 -51 -82 -74 -84 -117 -1 -15 7 -18 43 -18 39 0 52 6
110 56 l65 57 -31 38 c-17 22 -32 39 -32 39 -1 0 -32 -25 -71 -55z"/>
<path d="M6277 3095 c-15 -19 -27 -38 -26 -42 0 -4 28 -32 61 -60 54 -47 66
-53 106 -53 l45 0 -6 38 c-7 38 -24 56 -113 121 l-40 30 -27 -34z"/>
<path d="M2020 3059 c-155 -80 -268 -107 -515 -125 l-100 -7 45 -14 c25 -7 79
-16 120 -19 41 -4 85 -13 97 -20 26 -16 64 -13 188 18 77 18 278 108 320 143
19 16 18 16 -22 12 -48 -6 -59 3 -43 33 15 28 0 25 -90 -21z"/>
<path d="M6992 3074 c3 -28 2 -29 -42 -26 l-45 3 40 -26 c110 -71 246 -125
379 -150 74 -14 88 -14 108 -2 13 8 60 18 104 21 45 3 99 12 120 20 l39 13
-90 7 c-278 19 -342 37 -608 164 -4 2 -7 -9 -5 -24z"/>
<path d="M2438 3035 c-50 -37 -70 -59 -78 -85 -17 -60 -15 -63 38 -56 44 7 94
35 165 93 l29 23 -41 0 c-39 0 -40 1 -43 38 l-3 38 -67 -51z"/>
<path d="M6592 3051 l4 -41 -45 0 -45 0 72 -54 c54 -40 83 -55 119 -60 25 -3
48 -4 51 -2 2 3 1 23 -3 45 -6 35 -16 47 -82 96 l-75 57 4 -41z"/>
<path d="M2158 2993 c-35 -22 -58 -43 -58 -54 0 -9 -16 -38 -35 -63 -19 -25
-31 -46 -27 -46 13 0 207 99 232 119 l25 20 -43 -6 c-23 -3 -42 -4 -42 -2 0 2
4 19 9 37 5 17 7 32 3 32 -4 -1 -33 -17 -64 -37z"/>
<path d="M6885 2994 l6 -37 -43 7 -43 6 25 -20 c25 -20 222 -120 236 -120 4 0
-2 10 -14 23 -11 12 -29 41 -40 65 -14 31 -35 53 -72 78 -28 19 -54 34 -57 34
-3 0 -2 -16 2 -36z"/>
<path d="M2815 2970 c-49 -41 -62 -58 -68 -91 -5 -22 -7 -43 -5 -45 2 -2 26
-1 54 2 40 5 58 15 103 55 l54 48 -33 40 c-17 23 -35 41 -38 41 -4 0 -34 -23
-67 -50z"/>
<path d="M6182 2980 l-32 -39 46 -43 c57 -53 59 -54 117 -62 47 -7 47 -7 46
21 0 15 -4 36 -8 47 -6 17 -119 116 -131 116 -3 0 -20 -18 -38 -40z"/>
<path d="M2537 2930 c-74 -56 -77 -59 -87 -106 l-8 -34 51 0 c46 0 57 5 126
58 l75 57 -44 5 c-44 5 -45 6 -42 38 2 17 2 32 -1 32 -2 0 -34 -22 -70 -50z"/>
<path d="M6493 2947 l6 -36 -45 -3 -45 -3 75 -57 c69 -53 79 -58 126 -58 44 0
51 2 47 18 -3 9 -8 28 -11 42 -4 15 -32 44 -73 75 -87 64 -87 64 -80 22z"/>
<path d="M2305 2931 c-24 -22 -178 -104 -253 -135 -46 -18 -93 -43 -105 -54
-24 -23 -77 -47 -147 -68 -44 -14 -43 -14 45 -9 158 9 350 69 490 154 l60 36
-42 3 c-47 3 -47 3 -34 50 9 32 4 40 -14 23z"/>
<path d="M6785 2902 l7 -41 -42 -3 -42 -3 68 -41 c88 -52 205 -98 318 -125 95
-22 268 -40 260 -27 -3 5 -13 8 -23 8 -34 0 -136 41 -171 68 -19 16 -66 41
-105 56 -68 27 -175 83 -244 128 l-33 21 7 -41z"/>
<path d="M2919 2864 c-58 -50 -67 -64 -68 -106 -1 -26 2 -28 38 -28 34 0 48 8
101 57 l61 56 -32 34 c-18 18 -36 33 -39 33 -3 0 -31 -21 -61 -46z"/>
<path d="M6082 2877 l-33 -34 65 -56 c52 -47 71 -57 100 -57 35 0 36 1 36 38
0 33 -7 43 -59 90 -33 28 -64 52 -68 52 -5 0 -24 -15 -41 -33z"/>
<path d="M2645 2827 c-54 -45 -61 -55 -72 -105 -6 -31 -16 -67 -23 -80 -6 -14
-9 -26 -7 -28 5 -5 159 105 216 153 l43 38 -45 -3 -46 -4 -3 39 -3 40 -60 -50z"/>
<path d="M6393 2842 l5 -42 -46 0 -47 0 40 -35 c73 -63 219 -160 211 -139 -11
26 -23 72 -30 115 -5 29 -19 46 -73 89 l-66 53 6 -41z"/>
<path d="M2370 2804 c-136 -98 -352 -167 -573 -183 l-102 -7 60 -19 c40 -12
95 -19 165 -20 67 -1 113 -6 126 -15 40 -25 218 33 348 114 40 25 80 54 90 65
19 21 19 21 -32 21 l-51 0 10 32 c5 18 9 34 9 35 0 8 -19 -1 -50 -23z"/>
<path d="M6691 2798 c5 -18 9 -34 9 -35 0 -2 -24 -3 -52 -3 l-53 -1 40 -35
c59 -51 241 -139 328 -159 62 -14 79 -14 99 -4 14 8 64 13 123 14 67 1 120 8
160 21 l60 19 -55 3 c-233 11 -442 72 -608 178 -29 19 -54 34 -56 34 -3 0 0
-15 5 -32z"/>
<path d="M3018 2767 c-48 -44 -57 -59 -61 -94 l-5 -42 46 6 c36 5 59 17 99 52
29 25 52 51 52 56 0 6 -17 24 -38 42 l-37 32 -56 -52z"/>
<path d="M5986 2781 l-37 -38 53 -51 c34 -34 62 -52 78 -52 14 0 36 -3 49 -7
23 -6 23 -5 16 38 -7 44 -41 90 -96 129 l-26 19 -37 -38z"/>
<path d="M2740 2708 c-41 -33 -106 -81 -145 -106 -38 -25 -86 -62 -105 -84
-19 -21 -64 -54 -100 -74 -36 -19 -56 -33 -45 -30 11 2 45 10 75 16 140 31
365 153 449 244 l24 26 -41 0 -41 0 6 35 c3 19 4 35 2 35 -2 -1 -38 -28 -79
-62z"/>
<path d="M6286 2735 l6 -35 -43 0 -44 -1 45 -41 c126 -114 336 -217 495 -242
39 -6 38 -5 -20 22 -33 16 -76 46 -95 66 -19 21 -64 57 -100 80 -72 47 -223
165 -228 178 -2 4 -8 8 -13 8 -6 0 -7 -15 -3 -35z"/>
<path d="M2889 2644 c-46 -49 -164 -132 -245 -173 -86 -43 -237 -91 -288 -91
-24 0 -27 -3 -16 -10 19 -12 182 -13 234 0 30 6 44 5 62 -7 21 -13 27 -12 76
12 62 31 170 110 248 182 l55 51 -49 -5 -49 -6 5 37 c5 43 0 45 -33 10z"/>
<path d="M6182 2636 l4 -38 -43 5 c-24 2 -43 1 -43 -4 0 -17 202 -176 271
-213 67 -36 71 -37 94 -22 20 13 33 14 67 6 55 -12 209 -13 228 0 12 8 10 10
-11 10 -48 0 -184 41 -267 80 -98 47 -155 84 -241 159 l-64 55 5 -38z"/>
<path d="M3905 2365 c-29 -28 -33 -84 -10 -128 14 -27 12 -36 -31 -160 -67
-192 -161 -441 -179 -476 -9 -19 -35 -41 -64 -55 -60 -31 -82 -73 -57 -110 8
-14 26 -28 38 -32 48 -15 358 -149 465 -201 89 -43 116 -61 132 -89 11 -19 32
-40 47 -46 33 -15 77 7 189 97 117 94 140 141 90 190 -31 32 -72 32 -133 1
-97 -48 -158 -43 -309 29 -75 35 -93 48 -99 70 -11 45 4 114 43 188 34 64 42
72 70 75 39 4 91 -39 139 -114 41 -63 82 -84 119 -60 13 9 27 27 30 39 7 27
-30 269 -45 298 -14 26 -57 35 -94 19 -17 -7 -47 -13 -66 -14 -33 -1 -35 1
-32 29 4 43 44 119 64 123 34 6 157 -40 196 -74 23 -20 52 -60 71 -101 18 -37
40 -76 48 -85 21 -24 56 -23 78 2 16 17 17 34 10 177 -4 87 -11 166 -16 175
-5 10 -45 28 -95 43 -101 31 -257 96 -396 166 -115 58 -164 64 -203 24z"/>
<path d="M4893 2192 c-70 -19 -98 -41 -112 -86 -5 -17 -28 -143 -50 -281 -48
-298 -91 -571 -91 -577 0 -3 -13 -22 -29 -42 -64 -80 -47 -136 41 -136 66 0
239 38 261 57 35 32 18 89 -37 121 -42 25 -53 59 -33 99 18 34 49 45 194 70
79 13 107 15 126 6 36 -17 44 -62 18 -104 -27 -43 -26 -74 0 -100 28 -28 70
-23 238 26 145 42 178 58 192 89 15 32 -1 60 -52 92 -45 28 -80 79 -338 490
-106 169 -174 267 -191 278 -34 19 -56 19 -137 -2z m97 -458 c28 -45 50 -89
50 -98 0 -36 -141 -65 -153 -31 -6 13 17 177 29 219 7 22 2 28 74 -90z"/>
<path d="M6855 715 c-24 -24 -31 -57 -19 -90 10 -24 60 -46 89 -39 57 14 75
97 29 133 -35 28 -69 26 -99 -4z"/>
<path d="M4133 723 c-13 -5 -107 -164 -117 -199 -8 -25 16 -54 43 -54 10 0 43
22 75 50 34 30 70 52 91 56 67 12 65 18 65 -226 l0 -221 -30 -17 c-41 -23 -50
-60 -20 -84 19 -15 41 -18 150 -18 109 0 131 3 150 18 30 24 21 66 -18 84
l-27 13 0 225 c0 202 2 225 17 228 35 7 96 -19 147 -63 54 -46 78 -54 99 -33
20 20 14 51 -32 145 -49 100 -66 114 -115 89 -43 -23 -396 -23 -425 -1 -20 15
-32 17 -53 8z"/>
<path d="M2795 711 c-3 -6 -56 -9 -118 -9 -94 1 -122 -3 -172 -22 -113 -43
-187 -109 -231 -204 -51 -111 -20 -261 72 -350 82 -80 181 -106 419 -113 199
-6 229 0 238 42 5 27 -20 65 -43 65 -6 0 -10 33 -10 79 0 73 2 80 26 95 18 13
24 24 22 44 -5 43 -38 53 -161 50 -94 -3 -111 -6 -123 -23 -21 -28 -17 -44 16
-73 25 -22 30 -34 30 -74 0 -76 -29 -91 -128 -66 -100 25 -160 126 -149 249
10 110 77 179 174 179 66 0 92 -10 174 -66 68 -47 94 -52 112 -23 8 12 1 40
-27 110 -21 52 -42 100 -48 107 -12 14 -64 16 -73 3z"/>
<path d="M6627 706 c-13 -10 -28 -11 -55 -5 -52 12 -160 11 -207 -2 -53 -15
-111 -74 -120 -123 -9 -47 7 -105 40 -144 28 -33 138 -92 265 -143 122 -48
157 -91 110 -134 -52 -47 -215 -23 -335 51 -99 61 -107 64 -127 53 -29 -16
-21 -57 30 -154 55 -104 84 -125 125 -87 22 21 24 21 87 5 36 -8 112 -16 170
-17 94 -1 111 2 161 25 120 57 162 190 94 304 -36 63 -92 98 -254 159 -136 51
-164 73 -120 96 33 18 91 2 183 -51 89 -51 114 -57 134 -37 21 21 13 50 -29
107 -83 112 -110 129 -152 97z"/>
<path d="M3048 688 c-20 -16 -30 -49 -20 -64 4 -6 18 -17 31 -24 23 -12 24
-14 17 -109 -19 -293 -20 -309 -2 -354 20 -54 46 -79 111 -109 44 -19 67 -22
180 -22 116 0 135 2 178 23 34 17 55 36 74 69 31 53 34 114 19 357 l-9 141 27
12 c20 9 26 19 26 41 0 42 -23 51 -128 51 -73 0 -92 -3 -105 -18 -25 -28 -21
-51 13 -70 17 -9 32 -24 34 -32 7 -21 21 -272 20 -343 0 -49 -4 -62 -27 -84
-22 -22 -38 -28 -89 -31 -53 -3 -67 -1 -90 17 -42 33 -47 70 -37 258 6 92 12
173 14 180 2 6 16 17 32 25 37 18 43 60 11 82 -29 21 -255 23 -280 4z"/>
<path d="M3710 682 c-30 -24 -21 -66 18 -84 l27 -13 0 -230 0 -230 -27 -13
c-39 -18 -48 -60 -18 -84 19 -15 41 -18 150 -18 109 0 131 3 150 18 30 24 21
66 -18 84 l-27 13 -3 227 -2 227 30 16 c41 21 51 62 20 87 -19 15 -41 18 -150
18 -109 0 -131 -3 -150 -18z"/>
<path d="M4988 688 c-17 -14 -174 -350 -201 -433 -25 -74 -59 -123 -97 -143
-44 -22 -53 -62 -18 -86 32 -22 204 -23 236 0 30 20 28 48 -5 74 -26 20 -27
23 -12 48 20 37 55 52 119 51 77 0 122 -18 134 -52 8 -23 7 -30 -12 -43 -14
-10 -22 -26 -22 -45 0 -41 27 -49 170 -49 99 0 121 3 140 18 30 25 21 66 -20
87 -37 19 -37 18 -114 226 -100 271 -126 333 -143 347 -9 6 -44 12 -78 12 -34
0 -68 -6 -77 -12z"/>
<path d="M5483 690 c-35 -14 -32 -66 6 -88 37 -21 41 -43 41 -253 0 -202 -3
-220 -41 -241 -36 -21 -39 -60 -7 -82 32 -23 254 -23 286 0 32 22 29 61 -7 82
-31 18 -42 40 -35 69 4 14 16 18 55 18 43 -1 54 -5 85 -37 l36 -36 -21 -21
c-27 -27 -27 -56 1 -75 17 -13 51 -16 148 -16 137 0 170 10 170 54 0 23 -28
56 -47 56 -12 0 -113 109 -113 121 0 4 10 9 23 13 29 7 73 49 94 89 20 39 20
121 0 169 -35 85 -154 159 -282 178 -86 12 -362 12 -392 0z m393 -125 c58 -38
82 -131 49 -194 -18 -36 -71 -61 -128 -61 -62 0 -71 14 -72 118 -1 118 4 142
29 153 29 12 91 4 122 -16z"/>
</g>
</svg>
