<?xml version="1.0" standalone="no"?>
<!DOCTYPE svg PUBLIC "-//W3C//DTD SVG 20010904//EN"
 "http://www.w3.org/TR/2001/REC-SVG-20010904/DTD/svg10.dtd">
<svg version="1.0" xmlns="http://www.w3.org/2000/svg"
 width="348.000000pt" height="348.000000pt" viewBox="0 0 348.000000 348.000000"
 preserveAspectRatio="xMidYMid meet">
<metadata>
Created by potrace 1.16, written by Peter Selinger 2001-2019
</metadata>
<g transform="translate(0.000000,348.000000) scale(0.100000,-0.100000)"
fill="#000000" stroke="none">
<path d="M765 2524 c-259 -65 -578 -177 -677 -237 -26 -16 -57 -41 -68 -57
-41 -57 -16 -152 51 -199 32 -21 41 -23 129 -18 146 8 192 33 170 92 -20 53
-13 73 33 93 81 37 238 88 406 132 85 23 101 24 101 9 0 -15 -135 -284 -160
-319 -15 -22 -33 -31 -73 -39 -28 -6 -86 -17 -127 -25 -41 -9 -115 -20 -164
-26 -100 -12 -106 -14 -106 -38 0 -35 41 -83 87 -104 44 -20 48 -20 127 -4
104 21 99 21 80 -16 -14 -27 -314 -436 -349 -474 -5 -7 -18 -22 -27 -35 -10
-13 -51 -68 -93 -123 -41 -54 -75 -107 -75 -118 0 -27 46 -66 87 -74 57 -11
146 0 174 21 23 17 86 101 207 273 105 149 294 455 367 595 21 40 36 47 180
87 86 24 111 40 102 64 -8 20 -88 56 -126 56 -44 0 -41 27 24 165 48 105 57
134 58 188 0 43 -5 65 -19 84 -43 57 -192 78 -319 47z"/>
<path d="M2535 2294 c-57 -20 -134 -91 -191 -176 -27 -40 -53 -78 -59 -84 -5
-6 -35 -52 -65 -102 l-55 -90 -60 5 c-99 8 -130 -12 -291 -192 -122 -136 -142
-155 -165 -155 -26 0 -19 26 22 88 16 24 29 45 29 47 0 3 25 40 55 84 30 44
55 87 55 95 0 9 -11 21 -25 28 -48 22 -148 -20 -236 -99 -22 -20 -42 -33 -45
-30 -3 3 0 21 7 40 32 89 -38 89 -151 -1 -25 -20 -47 -39 -50 -43 -3 -3 -54
-46 -115 -94 -136 -109 -211 -146 -230 -114 -12 18 81 97 150 128 49 22 65 35
65 50 0 29 -30 41 -104 41 -38 0 -66 4 -66 10 0 6 21 24 47 40 52 33 98 38
143 15 25 -13 32 -13 57 0 15 8 33 15 39 15 6 0 19 9 28 19 52 57 -77 113
-201 87 -70 -15 -159 -62 -185 -97 -31 -44 -32 -73 -2 -108 l27 -32 -56 -56
c-39 -38 -59 -67 -63 -90 -14 -74 26 -130 102 -140 48 -6 125 32 254 125 46
33 87 59 90 57 4 -2 0 -31 -8 -65 -16 -66 -7 -110 24 -110 8 0 65 47 124 105
105 101 141 126 125 88 -41 -97 -46 -162 -15 -193 34 -34 76 -25 155 35 27 21
51 33 53 27 2 -6 13 -26 25 -43 43 -64 118 -63 193 2 46 40 64 43 64 10 0 -69
141 -65 223 7 16 14 21 13 58 -24 36 -35 45 -39 89 -37 84 2 150 44 428 273
35 29 66 50 68 47 5 -5 -23 -56 -37 -67 -12 -10 -57 -105 -64 -137 -10 -47 11
-100 45 -118 61 -32 128 -20 435 76 190 59 205 67 205 100 0 48 13 50 -275
-33 -168 -48 -236 -61 -261 -49 -47 21 -32 53 76 166 55 57 100 111 100 119 0
9 -9 25 -21 37 -17 17 -28 20 -64 15 l-43 -7 14 38 c28 80 11 138 -41 143 -57
6 -76 -1 -130 -54 -59 -58 -66 -80 -43 -141 11 -31 9 -34 -29 -69 -119 -107
-275 -218 -325 -230 -23 -5 -28 -3 -28 13 0 25 62 75 143 116 100 50 86 95
-29 95 -69 0 -85 10 -51 33 35 23 82 29 127 17 47 -13 97 -1 124 29 24 27 11
45 -45 66 -96 34 -252 3 -309 -61 -37 -42 -38 -73 -5 -112 14 -17 25 -34 25
-39 0 -5 -49 -41 -109 -81 -100 -66 -151 -87 -151 -62 0 32 86 172 179 291 58
76 115 149 126 164 11 15 57 78 102 139 97 130 112 165 89 201 -19 28 -34 30
-91 9z m-442 -609 c-3 -33 -41 -83 -104 -136 -49 -41 -77 -53 -98 -40 -38 24
51 153 132 190 56 26 73 23 70 -14z"/>
</g>
</svg>
